<svg width="91" height="80" viewBox="0 0 91 80" fill="none" xmlns="http://www.w3.org/2000/svg">
<path d="M4.31955 53.2344H27.043C30.8279 53.2344 34.4284 52.4312 37.6851 50.9888C37.6224 51.7332 37.5898 52.4822 37.5898 53.2344C37.5898 67.7732 49.4182 79.6016 63.957 79.6016H86.8562L82.9219 71.7329C87.761 66.8168 90.5 60.1839 90.5 53.2344C90.5 38.6955 78.5929 26.8672 63.957 26.8672C60.2331 26.8672 56.6343 27.629 53.3149 29.0977C53.3768 28.3622 53.4102 27.6185 53.4102 26.8672C53.4102 12.3283 41.5818 0.5 27.043 0.5C12.4071 0.5 0.5 12.3283 0.5 26.8672C0.5 33.7409 3.30248 40.3779 8.25231 45.3694L4.31955 53.2344ZM63.957 32.1406C75.6852 32.1406 85.2266 41.6033 85.2266 53.2344C85.2266 64.4564 76.8632 69.9382 76.4132 70.5079L78.3235 74.3281H63.957C52.3259 74.3281 42.8633 64.8655 42.8633 53.2344C42.8633 51.203 43.1516 49.2028 43.7176 47.2764C47.3171 44.3302 50.1259 40.4528 51.7728 36.0152C55.3448 33.479 59.5404 32.1406 63.957 32.1406ZM5.77344 26.8672C5.77344 15.2361 15.3148 5.77344 27.043 5.77344C38.6741 5.77344 48.1367 15.2361 48.1367 26.8672C48.1367 38.4983 38.6741 47.9609 27.043 47.9609H12.8523L14.7625 44.1407C14.2751 43.5302 5.77344 37.9453 5.77344 26.8672Z" fill="#0E121D"/>
<path d="M27.043 16.3203C29.9507 16.3203 32.3164 18.686 32.3164 21.5938C32.3164 23.565 31.2297 25.3574 29.4807 26.2718C26.398 27.8832 24.4062 31.2218 24.4062 34.7773H29.6797C29.6797 33.1869 30.5816 31.6469 31.9239 30.9451C35.4186 29.1182 37.5898 25.5349 37.5898 21.5938C37.5898 15.7782 32.8585 11.0469 27.043 11.0469C21.2274 11.0469 16.4961 15.7782 16.4961 21.5938H21.7695C21.7695 18.686 24.1352 16.3203 27.043 16.3203Z" fill="#43568E"/>
<path d="M24.4062 37.4141H29.6797V42.6875H24.4062V37.4141Z" fill="#43568E"/>
<path d="M53.4102 45.3242H74.6797V50.5977H53.4102V45.3242Z" fill="#43568E"/>
<path d="M53.4102 55.8711H74.6797V61.1445H53.4102V55.8711Z" fill="#43568E"/>
</svg>
