<svg width="182" height="68" viewBox="0 0 182 68" fill="none" xmlns="http://www.w3.org/2000/svg">
<path d="M15.3794 34.6075H22.2988L13.3462 22.9658L21.8397 12.7343H14.8875L8.16489 21.7197V12.7343H2.52443V34.6075H8.16489V28.2128L9.64059 26.3763L15.3794 34.6075ZM26.375 16.7679C27.9818 16.7679 29.2608 15.4889 29.2608 13.8821C29.2608 12.2752 27.9818 10.9962 26.375 10.9962C24.7681 10.9962 23.4891 12.2752 23.4891 13.8821C23.4891 15.4889 24.7681 16.7679 26.375 16.7679ZM23.8499 34.6075H28.9V18.7683H23.8499V34.6075ZM33.6428 34.6075H38.693V23.1626H41.9067V18.7683H38.693V18.1124C38.693 16.8991 39.3816 16.2432 40.431 16.2432C40.8901 16.2432 41.3492 16.3416 41.7428 16.5711L42.661 13.1278C41.8739 12.7015 40.6934 12.4064 39.316 12.4064C36.0367 12.4064 33.6428 14.6035 33.6428 17.9812V18.7683H31.0193V23.1626H33.6428V34.6075ZM49.0436 40.6415V32.7383C50.3554 34.3123 51.9623 35.001 53.7331 35.001C57.7011 35.001 60.6853 32.0496 60.6853 26.6715C60.6853 21.3262 57.7011 18.3748 53.7331 18.3748C51.9295 18.3748 50.2898 19.0962 49.0436 20.6047V18.7683H43.9935V40.6415H49.0436ZM55.5367 26.6715C55.5367 29.0654 54.0282 30.5411 52.0606 30.5411C50.9784 30.5411 49.6667 29.918 49.0436 29.0982V24.2776C49.6667 23.4249 50.9784 22.8347 52.0606 22.8347C54.0282 22.8347 55.5367 24.3104 55.5367 26.6715ZM70.9117 35.001C76.3554 35.001 79.5692 31.1314 79.5692 26.6715C79.5692 22.2116 76.3554 18.3748 70.9117 18.3748C65.5336 18.3748 62.287 22.2116 62.287 26.6715C62.287 31.1314 65.5336 35.001 70.9117 35.001ZM70.9117 30.5411C68.7145 30.5411 67.5012 28.8031 67.5012 26.6715C67.5012 24.5727 68.7145 22.8347 70.9117 22.8347C73.1417 22.8347 74.3878 24.5727 74.3878 26.6715C74.3878 28.8031 73.1417 30.5411 70.9117 30.5411ZM89.8063 35.001C95.25 35.001 98.4638 31.1314 98.4638 26.6715C98.4638 22.2116 95.25 18.3748 89.8063 18.3748C84.4282 18.3748 81.1817 22.2116 81.1817 26.6715C81.1817 31.1314 84.4282 35.001 89.8063 35.001ZM89.8063 30.5411C87.6092 30.5411 86.3958 28.8031 86.3958 26.6715C86.3958 24.5727 87.6092 22.8347 89.8063 22.8347C92.0363 22.8347 93.2824 24.5727 93.2824 26.6715C93.2824 28.8031 92.0363 30.5411 89.8063 30.5411ZM101.126 34.6075H106.176V12.7343H101.126V34.6075Z" fill="black"/>
<path d="M12.1864 53.2396C12.1864 53.5944 12.1295 53.9291 12.0157 54.2437C11.9019 54.565 11.7379 54.8427 11.5237 55.077C11.3162 55.318 11.0585 55.5088 10.7506 55.6493C10.4494 55.7899 10.1113 55.8602 9.73649 55.8602H9.16418C8.4145 55.8602 7.83215 55.6292 7.41715 55.1674C7.00214 54.7055 6.79464 54.073 6.79464 53.2697V51.5327H7.28662V53.2597C7.28662 53.5676 7.32678 53.8487 7.40711 54.1031C7.48743 54.3575 7.60792 54.575 7.76856 54.7557C7.92921 54.9431 8.13002 55.0871 8.37099 55.1875C8.61865 55.2879 8.90983 55.3381 9.24451 55.3381H9.68629C10.0143 55.3381 10.3021 55.2812 10.5498 55.1674C10.8041 55.0603 11.015 54.913 11.1823 54.7256C11.3497 54.5382 11.4768 54.3173 11.5639 54.0629C11.6509 53.8153 11.6944 53.5542 11.6944 53.2798V47.2053H12.1864V53.2396ZM14.3863 55.3381C14.6942 55.3381 14.9687 55.2879 15.2096 55.1875C15.4506 55.0871 15.6514 54.9498 15.8121 54.7758C15.9794 54.6018 16.1066 54.3976 16.1936 54.1633C16.2873 53.9358 16.3409 53.6914 16.3542 53.4304H15.2197C14.8783 53.4304 14.5972 53.3936 14.3763 53.3199C14.1554 53.2463 13.9813 53.1426 13.8542 53.0087C13.727 52.8681 13.6366 52.7008 13.5831 52.5067C13.5362 52.3059 13.5128 52.085 13.5128 51.844C13.5128 51.5963 13.5463 51.3587 13.6132 51.1311C13.6868 50.8969 13.7939 50.696 13.9345 50.5287C14.0751 50.3547 14.2491 50.2174 14.4566 50.117C14.6641 50.0099 14.9051 49.9564 15.1795 49.9564C15.4004 49.9564 15.6112 49.9932 15.8121 50.0668C16.0129 50.1405 16.1902 50.2576 16.3442 50.4183C16.4982 50.5722 16.6186 50.773 16.7057 51.0207C16.7994 51.2683 16.8462 51.5696 16.8462 51.9243V52.8982H17.8703C17.9507 52.8982 18.0042 52.9217 18.031 52.9685C18.0645 53.0154 18.0812 53.079 18.0812 53.1593C18.0812 53.253 18.0645 53.3233 18.031 53.3701C18.0042 53.4103 17.9507 53.4304 17.8703 53.4304H16.8261C16.8128 53.7584 16.7458 54.0696 16.6253 54.3642C16.5115 54.6587 16.3509 54.9164 16.1434 55.1373C15.9426 55.3582 15.6983 55.5322 15.4104 55.6594C15.1293 55.7932 14.808 55.8602 14.4466 55.8602H13.3622L13.3019 55.3381H14.3863ZM13.9947 51.8239C13.9947 52.018 14.0148 52.182 14.055 52.3159C14.0951 52.4498 14.1654 52.5602 14.2658 52.6472C14.3729 52.7343 14.5135 52.7978 14.6875 52.838C14.8616 52.8782 15.0824 52.8982 15.3502 52.8982H16.3542V52.0348C16.3542 51.4859 16.2438 51.0876 16.0229 50.84C15.8087 50.5923 15.5108 50.4685 15.1293 50.4685C14.7678 50.4685 14.4867 50.5923 14.2859 50.84C14.0918 51.0876 13.9947 51.4156 13.9947 51.8239ZM18.7654 52.8982C19.0465 52.8982 19.2741 52.8213 19.4481 52.6673C19.6221 52.5134 19.7092 52.3092 19.7092 52.0548V50.5789H20.2011V52.0348C20.2011 52.4765 20.0706 52.8213 19.8096 53.0689C19.5552 53.3099 19.2172 53.4304 18.7955 53.4304H17.8718C17.7847 53.4304 17.7278 53.4103 17.7011 53.3701C17.6676 53.3233 17.6509 53.2597 17.6509 53.1794C17.6509 53.0857 17.6676 53.0154 17.7011 52.9685C17.7278 52.9217 17.7847 52.8982 17.8718 52.8982H18.7654ZM19.3377 56.3421H18.6348V55.7297H19.3377V56.3421ZM19.93 55.2176H19.2373V54.6152H19.93V55.2176ZM18.7252 55.2176H18.0324V54.6152H18.7252V55.2176ZM28.6375 50.0468C28.4501 50.0468 28.2794 50.0802 28.1255 50.1472C27.9715 50.2141 27.841 50.3045 27.7339 50.4183C27.6268 50.5254 27.5431 50.6559 27.4829 50.8098C27.4293 50.9571 27.4026 51.1144 27.4026 51.2817C27.4026 51.4759 27.4427 51.6532 27.5231 51.8139C27.6101 51.9745 27.7172 52.1184 27.8443 52.2456C27.9782 52.3661 28.1221 52.4732 28.2761 52.5669C28.4367 52.6539 28.5873 52.7276 28.7279 52.7878C28.835 52.7276 28.9521 52.6539 29.0793 52.5669C29.2132 52.4732 29.337 52.3661 29.4508 52.2456C29.5713 52.1251 29.6684 51.9879 29.742 51.834C29.8223 51.68 29.8625 51.5093 29.8625 51.3219C29.8625 50.9404 29.752 50.6325 29.5311 50.3982C29.3169 50.1639 29.0191 50.0468 28.6375 50.0468ZM28.6978 49.5146C28.9789 49.5146 29.2232 49.5648 29.4307 49.6652C29.6382 49.7589 29.8089 49.8828 29.9428 50.0367C30.0834 50.1907 30.1871 50.3681 30.2541 50.5689C30.3277 50.7697 30.3645 50.9705 30.3645 51.1713C30.3645 51.5127 30.2741 51.8306 30.0934 52.1251C29.9194 52.413 29.6483 52.6707 29.2801 52.8982H31.2882C31.4355 52.8982 31.5091 52.9853 31.5091 53.1593C31.5091 53.34 31.4355 53.4304 31.2882 53.4304H30.1436C29.8357 53.4304 29.5613 53.4237 29.3203 53.4103C29.0793 53.3969 28.8919 53.3601 28.758 53.2999C28.6576 53.3333 28.5371 53.3601 28.3966 53.3802C28.2627 53.3936 28.1221 53.407 27.9749 53.4203C27.8343 53.427 27.6937 53.4304 27.5532 53.4304C27.4193 53.4304 27.3055 53.4304 27.2118 53.4304H24.4507C24.1762 53.4304 23.9386 53.3902 23.7378 53.3099C23.5437 53.2229 23.383 53.1091 23.2559 52.9685C23.1354 52.828 23.045 52.664 22.9848 52.4765C22.9312 52.2891 22.9045 52.0917 22.9045 51.8842V50.5689H23.3964V51.7737C23.3964 52.1151 23.4834 52.3895 23.6575 52.597C23.8315 52.7978 24.1294 52.8982 24.5511 52.8982H28.1154C27.754 52.7242 27.4628 52.4933 27.2419 52.2055C27.0277 51.9176 26.9206 51.593 26.9206 51.2315C26.9206 51.0106 26.9608 50.7964 27.0411 50.5889C27.1214 50.3814 27.2386 50.2007 27.3925 50.0468C27.5465 49.8861 27.7339 49.7589 27.9548 49.6652C28.1757 49.5648 28.4233 49.5146 28.6978 49.5146ZM29.0191 48.4704H28.2761V47.8579H29.0191V48.4704ZM32.0683 52.8982C32.3695 52.8982 32.6005 52.8213 32.7611 52.6673C32.9284 52.5134 33.0121 52.3092 33.0121 52.0548V50.5789H33.5141V52.0548C33.5141 52.2155 33.5409 52.3494 33.5945 52.4565C33.648 52.5636 33.7149 52.6506 33.7953 52.7175C33.8823 52.7845 33.9793 52.8313 34.0864 52.8581C34.1935 52.8849 34.3006 52.8982 34.4077 52.8982H34.7391C34.893 52.8982 34.97 52.9853 34.97 53.1593C34.97 53.34 34.893 53.4304 34.7391 53.4304H34.3977C34.1634 53.4304 33.9425 53.3835 33.735 53.2898C33.5275 53.1961 33.3602 53.0221 33.233 52.7677C33.0857 53.0221 32.9117 53.1961 32.7109 53.2898C32.5101 53.3835 32.2959 53.4304 32.0683 53.4304H31.2852C31.1981 53.4304 31.1412 53.4103 31.1145 53.3701C31.081 53.3233 31.0643 53.2597 31.0643 53.1794C31.0643 53.0857 31.081 53.0154 31.1145 52.9685C31.1412 52.9217 31.1981 52.8982 31.2852 52.8982H32.0683ZM33.8957 55.2176H33.243V54.6152H33.8957V55.2176ZM32.6607 55.2176H31.998V54.6152H32.6607V55.2176ZM37.4475 52.8982C37.7956 52.8982 38.0365 52.8313 38.1704 52.6974C38.3043 52.5569 38.3712 52.3795 38.3712 52.1653C38.3712 52.0448 38.3478 51.9076 38.3009 51.7536C38.2608 51.593 38.1403 51.4123 37.9395 51.2115L35.6603 48.9323V48.4001L38.9937 47.0647L39.1343 47.5668L36.1723 48.7515L38.1102 50.6893C38.2775 50.8567 38.4114 51.0073 38.5118 51.1412C38.6122 51.2683 38.6892 51.3922 38.7427 51.5127C38.8029 51.6332 38.8431 51.7503 38.8632 51.8641C38.8833 51.9712 38.8933 52.0883 38.8933 52.2155C38.8933 52.6372 38.7628 52.9451 38.5017 53.1392C38.2474 53.3333 37.9093 53.4304 37.4876 53.4304H34.7366C34.6495 53.4304 34.5926 53.4103 34.5659 53.3701C34.5324 53.3233 34.5157 53.2597 34.5157 53.1794C34.5157 53.0857 34.5324 53.0154 34.5659 52.9685C34.5926 52.9217 34.6495 52.8982 34.7366 52.8982H37.4475ZM41.6521 50.4484L41.9633 49.8861H44.5236C44.6642 49.8861 44.7981 49.9028 44.9253 49.9363C45.0591 49.9698 45.1763 50.0233 45.2767 50.097C45.3838 50.1639 45.4674 50.2543 45.5277 50.3681C45.5879 50.4818 45.618 50.6157 45.618 50.7697C45.618 50.8634 45.5946 50.9671 45.5478 51.0809C45.5076 51.188 45.4306 51.3152 45.3168 51.4625C45.2097 51.6097 45.0591 51.7771 44.865 51.9645C44.6776 52.1452 44.4366 52.3594 44.1421 52.6071C44.3228 52.7343 44.5303 52.8146 44.7646 52.848C45.0056 52.8815 45.3235 52.8982 45.7185 52.8982H46.4614C46.6087 52.8982 46.6823 52.9853 46.6823 53.1593C46.6823 53.34 46.6087 53.4304 46.4614 53.4304H45.6582C45.3972 53.4304 45.1629 53.427 44.9554 53.4203C44.7546 53.407 44.5738 53.3835 44.4132 53.3501C44.2525 53.3099 44.1053 53.2497 43.9714 53.1693C43.8375 53.089 43.707 52.9786 43.5798 52.838C43.0711 53.1794 42.703 53.5074 42.4754 53.822C42.2478 54.1366 42.134 54.4746 42.134 54.8361C42.134 55.3113 42.2846 55.6694 42.5858 55.9104C42.8937 56.1513 43.3958 56.2718 44.0919 56.2718H45.859L45.8088 56.7939H44.0517C43.5899 56.7939 43.205 56.7404 42.8971 56.6333C42.5892 56.5329 42.3415 56.3957 42.1541 56.2216C41.9734 56.0476 41.8428 55.8401 41.7625 55.5991C41.6822 55.3648 41.642 55.1172 41.642 54.8561C41.642 54.4277 41.7625 54.0261 42.0035 53.6513C42.2512 53.2764 42.6394 52.9016 43.1682 52.5267L41.6521 50.4484ZM45.0959 50.86C45.0959 50.7195 45.0357 50.6057 44.9152 50.5187C44.8014 50.4316 44.6274 50.3881 44.3931 50.3881H42.2043L43.6802 52.4163C44.1622 52.0348 44.5169 51.7235 44.7445 51.4825C44.9788 51.2349 45.0959 51.0274 45.0959 50.86ZM46.4635 53.4304C46.3765 53.4304 46.3196 53.4103 46.2928 53.3701C46.2593 53.3233 46.2426 53.2597 46.2426 53.1794C46.2426 53.0857 46.2593 53.0154 46.2928 52.9685C46.3196 52.9217 46.3765 52.8982 46.4635 52.8982H48.7427C49.0238 52.8982 49.248 52.8213 49.4154 52.6673C49.5894 52.5134 49.6764 52.3092 49.6764 52.0548V50.5789H50.1784V52.0348C50.1784 52.4765 50.0479 52.8213 49.7869 53.0689C49.5325 53.3099 49.1945 53.4304 48.7728 53.4304H46.4635ZM48.9636 55.2176H48.3109V54.6152H48.9636V55.2176ZM47.7286 55.2176H47.0659V54.6152H47.7286V55.2176ZM52.3254 52.095C52.3254 52.3293 52.4057 52.5234 52.5663 52.6774C52.727 52.8246 52.9479 52.8982 53.229 52.8982H53.3395C53.4867 52.8982 53.5604 52.9853 53.5604 53.1593C53.5604 53.34 53.4867 53.4304 53.3395 53.4304H53.229C53.055 53.4304 52.8843 53.3969 52.717 53.33C52.5496 53.263 52.4124 53.1526 52.3053 52.9987V53.2697C52.3053 53.6714 52.2451 54.0295 52.1246 54.3441C52.0041 54.6654 51.8367 54.9365 51.6225 55.1573C51.4084 55.3849 51.154 55.559 50.8595 55.6794C50.5716 55.7999 50.2604 55.8602 49.9257 55.8602H49.6747L49.6145 55.3381H49.8353C50.1834 55.3381 50.4813 55.2812 50.7289 55.1674C50.9833 55.0536 51.1908 54.8996 51.3515 54.7055C51.5121 54.5181 51.6292 54.2972 51.7029 54.0429C51.7832 53.7952 51.8234 53.5375 51.8234 53.2697V50.5789H52.3254V52.095ZM53.6682 52.8982C53.9694 52.8982 54.207 52.8213 54.3811 52.6673C54.5551 52.5134 54.6421 52.3092 54.6421 52.0548V50.5789H55.1442V52.0548C55.1442 52.2155 55.1709 52.3494 55.2245 52.4565C55.2847 52.5636 55.3583 52.6506 55.4454 52.7175C55.5391 52.7845 55.6395 52.8313 55.7466 52.8581C55.8604 52.8849 55.9742 52.8982 56.088 52.8982C56.4226 52.8982 56.6803 52.8213 56.8611 52.6673C57.0418 52.5134 57.1322 52.3092 57.1322 52.0548V50.5789H57.6342V52.0548C57.6342 52.2155 57.6576 52.3494 57.7045 52.4565C57.758 52.5636 57.8249 52.6506 57.9053 52.7175C57.9856 52.7845 58.0793 52.8313 58.1864 52.8581C58.2935 52.8849 58.4039 52.8982 58.5177 52.8982C58.7922 52.8982 59.0131 52.8213 59.1804 52.6673C59.3478 52.5134 59.4314 52.3092 59.4314 52.0548V50.5789H59.9334V52.0348C59.9334 52.4765 59.8029 52.8213 59.5419 53.0689C59.2875 53.3099 58.9495 53.4304 58.5278 53.4304C58.2801 53.4304 58.0525 53.3835 57.845 53.2898C57.6375 53.1961 57.4735 53.0221 57.353 52.7677C57.2058 53.0221 57.0184 53.1961 56.7908 53.2898C56.5699 53.3835 56.3356 53.4304 56.088 53.4304C55.8202 53.4304 55.5792 53.3835 55.365 53.2898C55.1508 53.1961 54.9835 53.0221 54.863 52.7677C54.7158 53.0221 54.5317 53.1961 54.3108 53.2898C54.0899 53.3835 53.859 53.4304 53.618 53.4304H53.3369C53.2499 53.4304 53.193 53.4103 53.1662 53.3701C53.1327 53.3233 53.116 53.2597 53.116 53.1794C53.116 53.0857 53.1327 53.0154 53.1662 52.9685C53.193 52.9217 53.2499 52.8982 53.3369 52.8982H53.6682ZM63.5688 55.3381C63.8767 55.3381 64.1511 55.2879 64.3921 55.1875C64.6331 55.0871 64.8339 54.9498 64.9945 54.7758C65.1619 54.6018 65.289 54.3976 65.3761 54.1633C65.4698 53.9358 65.5233 53.6914 65.5367 53.4304H64.4021C64.0608 53.4304 63.7796 53.3936 63.5587 53.3199C63.3379 53.2463 63.1638 53.1426 63.0366 53.0087C62.9095 52.8681 62.8191 52.7008 62.7656 52.5067C62.7187 52.3059 62.6953 52.085 62.6953 51.844C62.6953 51.5963 62.7287 51.3587 62.7957 51.1311C62.8693 50.8969 62.9764 50.696 63.117 50.5287C63.2575 50.3547 63.4316 50.2174 63.6391 50.117C63.8466 50.0099 64.0875 49.9564 64.362 49.9564C64.5829 49.9564 64.7937 49.9932 64.9945 50.0668C65.1953 50.1405 65.3727 50.2576 65.5267 50.4183C65.6806 50.5722 65.8011 50.773 65.8881 51.0207C65.9818 51.2683 66.0287 51.5696 66.0287 51.9243V53.2697C66.0287 53.6111 65.9718 53.9391 65.858 54.2537C65.7509 54.5683 65.5936 54.8427 65.3861 55.077C65.1853 55.318 64.9343 55.5088 64.6331 55.6493C64.3386 55.7899 64.0039 55.8602 63.629 55.8602H62.5447L62.4844 55.3381H63.5688ZM63.1772 51.8239C63.1772 52.018 63.1973 52.182 63.2375 52.3159C63.2776 52.4498 63.3479 52.5602 63.4483 52.6472C63.5554 52.7343 63.696 52.7978 63.87 52.838C64.044 52.8782 64.2649 52.8982 64.5327 52.8982H65.5367V52.0348C65.5367 51.4859 65.4263 51.0876 65.2054 50.84C64.9912 50.5923 64.6933 50.4685 64.3118 50.4685C63.9503 50.4685 63.6692 50.5923 63.4684 50.84C63.2743 51.0876 63.1772 51.4156 63.1772 51.8239ZM75.039 53.4304C74.8649 53.4304 74.6943 53.3969 74.5269 53.33C74.3596 53.263 74.2223 53.1526 74.1153 52.9987V53.2597C74.1153 53.6078 74.0584 53.9391 73.9446 54.2537C73.8308 54.5683 73.6668 54.8427 73.4526 55.077C73.2451 55.318 72.9907 55.5088 72.6895 55.6493C72.3883 55.7899 72.0503 55.8602 71.6754 55.8602H71.1031C70.3534 55.8602 69.7711 55.6292 69.3561 55.1674C68.9411 54.7055 68.7336 54.073 68.7336 53.2697V51.5327H69.2256V53.2597C69.2256 53.5676 69.2657 53.8487 69.346 54.1031C69.4264 54.3575 69.5469 54.575 69.7075 54.7557C69.8681 54.9431 70.069 55.0871 70.3099 55.1875C70.5576 55.2879 70.8488 55.3381 71.1834 55.3381H71.6252C71.9532 55.3381 72.241 55.2812 72.4887 55.1674C72.7431 55.0603 72.9539 54.913 73.1212 54.7256C73.2886 54.5382 73.4158 54.3173 73.5028 54.0629C73.5898 53.8153 73.6333 53.5542 73.6333 53.2798V50.5789H74.1253V52.095C74.1253 52.3293 74.209 52.5234 74.3763 52.6774C74.5436 52.8246 74.7645 52.8982 75.039 52.8982H75.1494C75.3034 52.8982 75.3803 52.9853 75.3803 53.1593C75.3803 53.34 75.3034 53.4304 75.1494 53.4304H75.039ZM71.6955 50.3379H70.9525V49.7255H71.6955V50.3379ZM75.334 52.8982C75.6151 52.8982 75.8226 52.828 75.9565 52.6874C76.0971 52.5468 76.1673 52.3694 76.1673 52.1553V51.7034C76.1673 51.1077 76.3146 50.6492 76.6091 50.3279C76.9036 49.9999 77.3153 49.8359 77.8441 49.8359C78.393 49.8359 78.8013 50.0033 79.069 50.3379C79.3368 50.6659 79.4706 51.0943 79.4706 51.6231C79.4706 52.1921 79.3234 52.6372 79.0289 52.9585C78.7344 53.2731 78.3227 53.4304 77.7939 53.4304C77.5195 53.4304 77.2584 53.3802 77.0107 53.2798C76.7698 53.1727 76.5723 52.9786 76.4184 52.6974C76.3581 52.8648 76.2845 52.9987 76.1975 53.0991C76.1104 53.1928 76.0201 53.2664 75.9264 53.3199C75.8327 53.3668 75.7356 53.3969 75.6352 53.4103C75.5348 53.4237 75.4344 53.4304 75.334 53.4304H75.1533C75.0662 53.4304 75.0093 53.4103 74.9826 53.3701C74.9491 53.3233 74.9324 53.2597 74.9324 53.1794C74.9324 53.0857 74.9491 53.0154 74.9826 52.9685C75.0093 52.9217 75.0662 52.8982 75.1533 52.8982H75.334ZM78.9787 51.6934C78.9787 51.2918 78.8917 50.9705 78.7176 50.7295C78.5436 50.4818 78.2424 50.358 77.814 50.358C77.4324 50.358 77.1413 50.4752 76.9405 50.7094C76.7396 50.937 76.6392 51.2817 76.6392 51.7436C76.6392 52.1251 76.7497 52.413 76.9706 52.6071C77.1915 52.8012 77.4659 52.8982 77.7939 52.8982C78.1821 52.8982 78.4766 52.7945 78.6775 52.587C78.8783 52.3728 78.9787 52.0749 78.9787 51.6934ZM80.7787 47.2053H81.2808V53.4304H80.7787V47.2053ZM87.4008 55.3381C87.7556 55.3381 88.0568 55.2979 88.3044 55.2176C88.5521 55.144 88.7529 55.0436 88.9069 54.9164C89.0675 54.7959 89.1813 54.6587 89.2482 54.5047C89.3219 54.3508 89.3587 54.1968 89.3587 54.0429C89.3587 53.8688 89.3152 53.7216 89.2282 53.6011C89.1478 53.4873 89.0006 53.4304 88.7864 53.4304H87.0092L87.0594 52.8982H90.6639C90.8112 52.8982 90.8848 52.9853 90.8848 53.1593C90.8848 53.34 90.8112 53.4304 90.6639 53.4304H89.6197C89.7067 53.5107 89.7636 53.6044 89.7904 53.7115C89.8239 53.8186 89.8406 53.9324 89.8406 54.0529C89.8406 54.2336 89.8005 54.4277 89.7201 54.6352C89.6465 54.8494 89.516 55.0469 89.3286 55.2276C89.1478 55.4084 88.9035 55.559 88.5956 55.6794C88.2944 55.7999 87.9196 55.8602 87.4711 55.8602H86.4972C85.7475 55.8602 85.1651 55.6292 84.7501 55.1674C84.3351 54.7055 84.1276 54.073 84.1276 53.2697V51.5327H84.6196V53.2597C84.6196 53.5676 84.6598 53.8487 84.7401 54.1031C84.8204 54.3575 84.9409 54.575 85.1015 54.7557C85.2622 54.9431 85.463 55.0871 85.704 55.1875C85.9516 55.2879 86.2428 55.3381 86.5775 55.3381H87.4008ZM92.6831 52.8982C92.837 52.8982 92.9743 52.8949 93.0947 52.8882C93.2152 52.8815 93.3424 52.8715 93.4763 52.8581C93.0412 52.7175 92.6965 52.5836 92.4421 52.4565C92.1944 52.3226 92.007 52.1854 91.8798 52.0448C91.7594 51.9042 91.6824 51.757 91.6489 51.603C91.6155 51.4424 91.5987 51.2617 91.5987 51.0608C91.5987 50.8734 91.6355 50.6827 91.7092 50.4885C91.7828 50.2944 91.8899 50.117 92.0305 49.9564C92.1777 49.7957 92.3551 49.6652 92.5626 49.5648C92.7768 49.4644 93.0211 49.4142 93.2956 49.4142C93.5499 49.4142 93.7808 49.451 93.9883 49.5247C94.1958 49.5916 94.3732 49.7054 94.5205 49.866C94.6677 50.02 94.7815 50.2208 94.8619 50.4685C94.9422 50.7161 94.9823 51.0173 94.9823 51.3721V51.7938C94.9823 52.3025 94.825 52.7041 94.5104 52.9987C94.2025 53.2865 93.7139 53.4304 93.0445 53.4304H90.665C90.5779 53.4304 90.521 53.4103 90.4943 53.3701C90.4608 53.3233 90.4441 53.2597 90.4441 53.1794C90.4441 53.0857 90.4608 53.0154 90.4943 52.9685C90.521 52.9217 90.5779 52.8982 90.665 52.8982H92.6831ZM93.2453 49.9464C93.0646 49.9464 92.9006 49.9798 92.7534 50.0468C92.6128 50.1137 92.4923 50.2007 92.3919 50.3078C92.2915 50.4149 92.2112 50.5387 92.1509 50.6793C92.0974 50.8132 92.0706 50.9504 92.0706 51.091C92.0706 51.2315 92.084 51.3621 92.1108 51.4825C92.1376 51.603 92.2145 51.7235 92.3417 51.844C92.4756 51.9645 92.6797 52.0917 92.9542 52.2255C93.2286 52.3527 93.6102 52.4966 94.0988 52.6573C94.2126 52.5636 94.3063 52.4464 94.3799 52.3059C94.4535 52.1586 94.4904 51.9846 94.4904 51.7838V51.4323C94.4904 50.9638 94.3933 50.599 94.1992 50.3379C94.0051 50.0769 93.6871 49.9464 93.2453 49.9464ZM93.667 48.36H92.9241V47.7475H93.667V48.36ZM96.2904 47.2053H96.7925V53.4304H96.2904V47.2053ZM99.1051 53.2697C99.1051 53.6714 99.0449 54.0295 98.9244 54.3441C98.8039 54.6654 98.6366 54.9365 98.4224 55.1573C98.2082 55.3849 97.9572 55.559 97.6693 55.6794C97.3815 55.7999 97.0669 55.8602 96.7255 55.8602H96.1532L96.103 55.3381H96.6151C96.9632 55.3381 97.2644 55.2812 97.5187 55.1674C97.7731 55.0536 97.9806 54.8996 98.1412 54.7055C98.3086 54.5181 98.4291 54.2972 98.5027 54.0429C98.583 53.7952 98.6232 53.5375 98.6232 53.2697V50.5789H99.1252V52.095C99.1252 52.3293 99.2055 52.5234 99.3662 52.6774C99.5268 52.8246 99.7477 52.8982 100.029 52.8982H100.139C100.287 52.8982 100.36 52.9853 100.36 53.1593C100.36 53.34 100.287 53.4304 100.139 53.4304H100.029C99.8548 53.4304 99.6841 53.3969 99.5168 53.33C99.3561 53.263 99.2189 53.1526 99.1051 52.9987V53.2697ZM102.577 52.8681C102.898 52.2791 103.196 51.7838 103.47 51.3821C103.751 50.9738 104.019 50.6425 104.273 50.3881C104.534 50.1338 104.785 49.9497 105.026 49.8359C105.267 49.7221 105.508 49.6652 105.749 49.6652C106.004 49.6652 106.235 49.7154 106.442 49.8158C106.656 49.9162 106.84 50.0568 106.994 50.2375C107.148 50.4116 107.265 50.6157 107.346 50.85C107.433 51.0843 107.476 51.3319 107.476 51.593C107.476 51.8139 107.439 52.0348 107.366 52.2557C107.299 52.4765 107.192 52.674 107.045 52.848C106.897 53.0221 106.71 53.1626 106.482 53.2697C106.261 53.3768 105.997 53.4304 105.689 53.4304H102.858C102.597 53.4304 102.359 53.3835 102.145 53.2898C101.931 53.1961 101.76 53.0221 101.633 52.7677C101.492 53.0221 101.308 53.1961 101.081 53.2898C100.86 53.3835 100.632 53.4304 100.398 53.4304H100.137C100.05 53.4304 99.9928 53.4103 99.966 53.3701C99.9325 53.3233 99.9158 53.2597 99.9158 53.1794C99.9158 53.0857 99.9325 53.0154 99.966 52.9685C99.9928 52.9217 100.05 52.8982 100.137 52.8982H100.438C100.739 52.8982 100.977 52.8213 101.151 52.6673C101.325 52.5134 101.412 52.3092 101.412 52.0548V50.5789H101.914V52.0548C101.914 52.269 101.974 52.4498 102.095 52.597C102.222 52.7376 102.382 52.828 102.577 52.8681ZM106.964 51.593C106.964 51.3922 106.931 51.2048 106.864 51.0307C106.804 50.8567 106.717 50.7094 106.603 50.5889C106.496 50.4618 106.365 50.3647 106.211 50.2978C106.057 50.2241 105.893 50.1873 105.719 50.1873C105.324 50.1873 104.913 50.4049 104.484 50.84C104.056 51.2683 103.581 51.9544 103.058 52.8982H105.699C105.86 52.8982 106.014 52.8748 106.161 52.828C106.315 52.7744 106.449 52.6974 106.563 52.597C106.683 52.4899 106.78 52.3561 106.854 52.1954C106.927 52.0281 106.964 51.8273 106.964 51.593Z" fill="black"/>
<rect x="127.641" width="43.0153" height="20.6473" rx="8.02678" fill="url(#paint0_radial_1506_11269)"/>
<path fill-rule="evenodd" clip-rule="evenodd" d="M119.668 9.12162C117.317 11.4726 117.317 15.2565 117.317 22.8242V51.6523C117.317 59.22 117.317 63.0039 119.668 65.3549C122.019 67.7059 125.803 67.7059 133.371 67.7059H165.478C173.046 67.7059 176.83 67.7059 179.181 65.3549C181.532 63.0039 181.532 59.22 181.532 51.6523C181.532 48.8981 179.299 46.6654 176.545 46.6654H149.766C144.597 46.6654 140.407 42.4753 140.407 37.3065C140.407 32.1377 144.597 27.9476 149.766 27.9476H176.408C179.238 27.9476 181.532 25.6538 181.532 22.8242C181.532 15.2565 181.532 11.4726 179.181 9.12162C176.83 6.77063 173.046 6.77063 165.478 6.77063H133.371C125.803 6.77063 122.019 6.77063 119.668 9.12162Z" fill="url(#paint1_radial_1506_11269)"/>
<circle cx="150.495" cy="37.2382" r="6.95654" fill="url(#paint2_linear_1506_11269)"/>
<defs>
<radialGradient id="paint0_radial_1506_11269" cx="0" cy="0" r="1" gradientUnits="userSpaceOnUse" gradientTransform="translate(149.148 7.03471) rotate(90) scale(13.6126 28.3596)">
<stop stop-color="#63739B"/>
<stop offset="1" stop-color="#B9BDC7"/>
</radialGradient>
<radialGradient id="paint1_radial_1506_11269" cx="0" cy="0" r="1" gradientUnits="userSpaceOnUse" gradientTransform="translate(119.094 66.0663) rotate(-42.6351) scale(65.5569 69.0846)">
<stop stop-color="#10327B"/>
<stop offset="1" stop-color="#14213D"/>
</radialGradient>
<linearGradient id="paint2_linear_1506_11269" x1="150.495" y1="30.2817" x2="157.451" y2="47.9049" gradientUnits="userSpaceOnUse">
<stop stop-color="#FCA311"/>
<stop offset="1" stop-color="#FFCC79"/>
</linearGradient>
</defs>
</svg>
