<svg width="1026" height="624" viewBox="0 0 1026 624" fill="none" xmlns="http://www.w3.org/2000/svg">
<path d="M432.5 1C435.786 266.343 404.714 399.468 298 612.5" stroke="url(#paint0_linear_31_1551)" stroke-width="14"/>
<path d="M596.231 2C592.945 267.343 624.017 400.468 730.731 613.5" stroke="url(#paint1_linear_31_1551)" stroke-width="14"/>
<path d="M559.231 1C555.945 266.343 587.017 399.468 693.731 612.5" stroke="url(#paint2_linear_31_1551)" stroke-width="14"/>
<path d="M465.23 1C465.23 274 430 446 400.999 622" stroke="url(#paint3_linear_31_1551)" stroke-width="14"/>
<path d="M527 1C527 274 562.23 446 591.231 622" stroke="url(#paint4_linear_31_1551)" stroke-width="14"/>
<path d="M495.001 1C499.499 333.115 495.001 458.231 495 622" stroke="url(#paint5_linear_31_1551)" stroke-width="14"/>
<path d="M398.5 1C401.786 266.343 370.714 399.468 264 612.5" stroke="url(#paint6_linear_31_1551)" stroke-width="14"/>
<path d="M628.231 2C624.945 267.343 656.017 400.468 762.731 613.5" stroke="url(#paint7_linear_31_1551)" stroke-width="14"/>
<path d="M362.5 1C365.786 266.343 334.714 399.468 228 612.5" stroke="url(#paint8_linear_31_1551)" stroke-width="14"/>
<path d="M664.231 2C660.945 267.343 692.017 400.468 798.731 613.5" stroke="url(#paint9_linear_31_1551)" stroke-width="14"/>
<path d="M325.5 1C328.786 266.343 297.714 399.468 191 612.5" stroke="url(#paint10_linear_31_1551)" stroke-width="14"/>
<path d="M701.231 2C697.945 267.343 729.017 400.468 835.731 613.5" stroke="url(#paint11_linear_31_1551)" stroke-width="14"/>
<path d="M289.5 1C292.786 266.343 261.714 399.468 155 612.5" stroke="url(#paint12_linear_31_1551)" stroke-width="14"/>
<path d="M737.231 2C733.945 267.343 765.017 400.468 871.731 613.5" stroke="url(#paint13_linear_31_1551)" stroke-width="14"/>
<path d="M252.5 1C255.786 266.343 224.714 399.468 118 612.5" stroke="url(#paint14_linear_31_1551)" stroke-width="14"/>
<path d="M774.231 2C770.945 267.343 802.017 400.468 908.731 613.5" stroke="url(#paint15_linear_31_1551)" stroke-width="14"/>
<path d="M215.5 1C218.786 266.343 187.714 399.468 81 612.5" stroke="url(#paint16_linear_31_1551)" stroke-width="14"/>
<path d="M811.231 2C807.945 267.343 839.017 400.468 945.731 613.5" stroke="url(#paint17_linear_31_1551)" stroke-width="14"/>
<path d="M178.5 1C181.786 266.343 150.714 399.468 44 612.5" stroke="url(#paint18_linear_31_1551)" stroke-width="14"/>
<path d="M848.231 2C844.945 267.343 876.017 400.468 982.731 613.5" stroke="url(#paint19_linear_31_1551)" stroke-width="14"/>
<path d="M141.5 1C144.786 266.343 113.714 399.468 7 612.5" stroke="url(#paint20_linear_31_1551)" stroke-width="14"/>
<path d="M885.231 2C881.945 267.343 913.017 400.468 1019.73 613.5" stroke="url(#paint21_linear_31_1551)" stroke-width="14"/>
<defs>
<linearGradient id="paint0_linear_31_1551" x1="365.25" y1="1" x2="365.25" y2="612.5" gradientUnits="userSpaceOnUse">
<stop stop-opacity="0"/>
<stop offset="0.5" stop-color="#42A3EF" stop-opacity="0.2"/>
<stop offset="1" stop-opacity="0"/>
</linearGradient>
<linearGradient id="paint1_linear_31_1551" x1="663.481" y1="2" x2="663.481" y2="613.5" gradientUnits="userSpaceOnUse">
<stop stop-opacity="0"/>
<stop offset="0.5" stop-color="#42A3EF" stop-opacity="0.2"/>
<stop offset="1" stop-opacity="0"/>
</linearGradient>
<linearGradient id="paint2_linear_31_1551" x1="626.481" y1="1" x2="626.481" y2="612.5" gradientUnits="userSpaceOnUse">
<stop stop-opacity="0"/>
<stop offset="0.5" stop-color="#42A3EF" stop-opacity="0.2"/>
<stop offset="1" stop-opacity="0"/>
</linearGradient>
<linearGradient id="paint3_linear_31_1551" x1="532.481" y1="1" x2="532.481" y2="612.5" gradientUnits="userSpaceOnUse">
<stop stop-opacity="0"/>
<stop offset="0.479167" stop-color="#42A3EF" stop-opacity="0.2"/>
<stop offset="1" stop-opacity="0"/>
</linearGradient>
<linearGradient id="paint4_linear_31_1551" x1="459.749" y1="1" x2="459.749" y2="612.5" gradientUnits="userSpaceOnUse">
<stop stop-opacity="0"/>
<stop offset="0.479167" stop-color="#42A3EF" stop-opacity="0.2"/>
<stop offset="1" stop-opacity="0"/>
</linearGradient>
<linearGradient id="paint5_linear_31_1551" x1="407.264" y1="1" x2="407.264" y2="623.017" gradientUnits="userSpaceOnUse">
<stop stop-opacity="0"/>
<stop offset="0.510417" stop-color="#42A3EF" stop-opacity="0.2"/>
<stop offset="1" stop-opacity="0"/>
</linearGradient>
<linearGradient id="paint6_linear_31_1551" x1="331.25" y1="1" x2="331.25" y2="612.5" gradientUnits="userSpaceOnUse">
<stop stop-opacity="0"/>
<stop offset="0.5" stop-color="#42A3EF" stop-opacity="0.2"/>
<stop offset="1" stop-opacity="0"/>
</linearGradient>
<linearGradient id="paint7_linear_31_1551" x1="695.481" y1="2" x2="695.481" y2="613.5" gradientUnits="userSpaceOnUse">
<stop stop-opacity="0"/>
<stop offset="0.5" stop-color="#42A3EF" stop-opacity="0.2"/>
<stop offset="1" stop-opacity="0"/>
</linearGradient>
<linearGradient id="paint8_linear_31_1551" x1="295.25" y1="1" x2="295.25" y2="612.5" gradientUnits="userSpaceOnUse">
<stop stop-opacity="0"/>
<stop offset="0.5" stop-color="#42A3EF" stop-opacity="0.2"/>
<stop offset="1" stop-opacity="0"/>
</linearGradient>
<linearGradient id="paint9_linear_31_1551" x1="731.481" y1="2" x2="731.481" y2="613.5" gradientUnits="userSpaceOnUse">
<stop stop-opacity="0"/>
<stop offset="0.5" stop-color="#42A3EF" stop-opacity="0.2"/>
<stop offset="1" stop-opacity="0"/>
</linearGradient>
<linearGradient id="paint10_linear_31_1551" x1="258.25" y1="1" x2="258.25" y2="612.5" gradientUnits="userSpaceOnUse">
<stop stop-opacity="0"/>
<stop offset="0.5" stop-color="#42A3EF" stop-opacity="0.2"/>
<stop offset="1" stop-opacity="0"/>
</linearGradient>
<linearGradient id="paint11_linear_31_1551" x1="768.481" y1="2" x2="768.481" y2="613.5" gradientUnits="userSpaceOnUse">
<stop stop-opacity="0"/>
<stop offset="0.5" stop-color="#42A3EF" stop-opacity="0.2"/>
<stop offset="1" stop-opacity="0"/>
</linearGradient>
<linearGradient id="paint12_linear_31_1551" x1="222.25" y1="1" x2="222.25" y2="612.5" gradientUnits="userSpaceOnUse">
<stop stop-opacity="0"/>
<stop offset="0.5" stop-color="#42A3EF" stop-opacity="0.2"/>
<stop offset="1" stop-opacity="0"/>
</linearGradient>
<linearGradient id="paint13_linear_31_1551" x1="804.481" y1="2" x2="804.481" y2="613.5" gradientUnits="userSpaceOnUse">
<stop stop-opacity="0"/>
<stop offset="0.5" stop-color="#42A3EF" stop-opacity="0.2"/>
<stop offset="1" stop-opacity="0"/>
</linearGradient>
<linearGradient id="paint14_linear_31_1551" x1="185.25" y1="1" x2="185.25" y2="612.5" gradientUnits="userSpaceOnUse">
<stop stop-opacity="0"/>
<stop offset="0.5" stop-color="#42A3EF" stop-opacity="0.2"/>
<stop offset="1" stop-opacity="0"/>
</linearGradient>
<linearGradient id="paint15_linear_31_1551" x1="841.481" y1="2" x2="841.481" y2="613.5" gradientUnits="userSpaceOnUse">
<stop stop-opacity="0"/>
<stop offset="0.5" stop-color="#42A3EF" stop-opacity="0.2"/>
<stop offset="1" stop-opacity="0"/>
</linearGradient>
<linearGradient id="paint16_linear_31_1551" x1="148.25" y1="1" x2="148.25" y2="612.5" gradientUnits="userSpaceOnUse">
<stop stop-opacity="0"/>
<stop offset="0.5" stop-color="#42A3EF" stop-opacity="0.2"/>
<stop offset="1" stop-opacity="0"/>
</linearGradient>
<linearGradient id="paint17_linear_31_1551" x1="878.481" y1="2" x2="878.481" y2="613.5" gradientUnits="userSpaceOnUse">
<stop stop-opacity="0"/>
<stop offset="0.5" stop-color="#42A3EF" stop-opacity="0.2"/>
<stop offset="1" stop-opacity="0"/>
</linearGradient>
<linearGradient id="paint18_linear_31_1551" x1="111.25" y1="1" x2="111.25" y2="612.5" gradientUnits="userSpaceOnUse">
<stop stop-opacity="0"/>
<stop offset="0.5" stop-color="#42A3EF" stop-opacity="0.2"/>
<stop offset="1" stop-opacity="0"/>
</linearGradient>
<linearGradient id="paint19_linear_31_1551" x1="915.481" y1="2" x2="915.481" y2="613.5" gradientUnits="userSpaceOnUse">
<stop stop-opacity="0"/>
<stop offset="0.5" stop-color="#42A3EF" stop-opacity="0.2"/>
<stop offset="1" stop-opacity="0"/>
</linearGradient>
<linearGradient id="paint20_linear_31_1551" x1="74.25" y1="1" x2="74.25" y2="612.5" gradientUnits="userSpaceOnUse">
<stop stop-opacity="0"/>
<stop offset="0.5" stop-color="#42A3EF" stop-opacity="0.2"/>
<stop offset="1" stop-opacity="0"/>
</linearGradient>
<linearGradient id="paint21_linear_31_1551" x1="952.481" y1="2" x2="952.481" y2="613.5" gradientUnits="userSpaceOnUse">
<stop stop-opacity="0"/>
<stop offset="0.5" stop-color="#42A3EF" stop-opacity="0.2"/>
<stop offset="1" stop-opacity="0"/>
</linearGradient>
</defs>
</svg>