<svg
  xmlns="http://www.w3.org/2000/svg"
  width="293"
  height="330"
  viewBox="0 0 293 330"
  fill="none"
>
          <path
    d="M235.718 54.497L228.709 71.3614L238.699 95.2921L231.68 112.178L207.67 121.976L193.659 155.683L203.65 179.614L196.631 196.499L172.621 206.297L158.61 240.005L168.6 263.936L161.582 280.821L137.572 290.619L130.57 307.462M210.105 43.8503L203.095 60.7146L213.085 84.6454L206.067 101.531L182.056 111.329L168.045 145.036L178.036 168.967L171.017 185.852L147.007 195.65L132.996 229.358L142.987 253.289L135.968 270.175L111.958 279.972L104.957 296.816M286.946 75.7904L279.936 92.6547L289.927 116.585L282.908 133.471L258.898 143.269L244.887 176.976L254.877 200.907L247.859 217.793L223.849 227.591L209.838 261.298L219.828 285.229L212.809 302.115L188.799 311.913L181.798 328.756M261.332 65.1437L254.322 82.008L264.313 105.939L257.294 122.824L233.284 132.622L219.273 166.33L229.263 190.26L222.245 207.146L198.235 216.944L184.224 250.652L194.214 274.583L187.196 291.468L163.185 301.266L156.184 318.109M133.263 11.9099L126.253 28.7742L136.243 52.705L129.225 69.5904L105.215 79.3884L91.2036 113.096L101.194 137.027L94.1754 153.912L70.1652 163.71L56.1544 197.418L66.1448 221.349L59.1262 238.234L35.116 248.032L28.1149 264.875M107.649 1.26323L100.639 18.1276L110.63 42.0583L103.611 58.9438L79.6008 68.7417L65.5897 102.449L75.5802 126.38L68.5616 143.265L44.5513 153.063L30.5406 186.771L40.5311 210.702L33.5124 227.588L9.50222 237.385L2.50111 254.229M184.491 33.2035L177.481 50.0678L187.471 73.9986L180.453 90.884L156.442 100.682L142.431 134.389L152.422 158.32L145.403 175.205L121.393 185.003L107.382 218.711L117.373 242.642L110.354 259.528L86.3438 269.326L79.3427 286.169M158.877 22.5566L151.867 39.421L161.857 63.3517L154.839 80.2372L130.829 90.0351L116.817 123.743L126.808 147.673L119.789 164.559L95.7791 174.357L81.7683 208.065L91.7588 231.995L84.7402 248.881L60.7299 258.679L53.7288 275.522"
    stroke="url(#paint0_linear_1_3)"
    stroke-width="5"
  />
        </svg>
