<?xml version="1.0" encoding="utf-8"?>
<!-- Generator: Adobe Illustrator 25.3.1, SVG Export Plug-In . SVG Version: 6.00 Build 0)  -->
<svg version="1.1" id="Layer_1" xmlns="http://www.w3.org/2000/svg" xmlns:xlink="http://www.w3.org/1999/xlink" x="0px" y="0px"
	 viewBox="0 0 1580 610" style="enable-background:new 0 0 1580 610;" xml:space="preserve">
<style type="text/css">
	.st0{fill:none;stroke:#9BD9FF;stroke-width:2;stroke-miterlimit:10;}
</style>
<g>
	<g>
		<path class="st0" d="M1451.75,56.93c-4.25,10.96-6.42,22.03-6.5,33.22c-0.09,11.2,1.96,21.37,6.13,30.51
			c4.93,10.83,12.05,19.65,21.35,26.45c9.3,6.81,19.62,10.9,30.95,12.27c11.33,1.38,22.22-0.32,32.68-5.09
			c10.26-4.68,18.55-11.72,24.86-21.13c6.31-9.41,9.94-19.85,10.91-31.34c0.97-11.48-1.02-22.64-5.95-33.46
			c-5.27-11.57-12.32-20.98-21.15-28.23c-8.83-7.25-20.31-13.28-34.46-18.11l-54.02-17.65l-12.79,45.39l9.53,3.1L1451.75,56.93z
			 M1488.67,90.48c0.44-4.48,2.28-11.07,5.53-19.76l1.52-4.08l3.26,1.22c9.44,2.91,16.06,5.7,19.87,8.36
			c3.8,2.66,6.6,5.95,8.39,9.87c2.04,4.48,2.08,9.02,0.13,13.64s-5.64,8.15-11.05,10.62c-5.42,2.47-10.55,2.95-15.4,1.44
			c-4.86-1.5-8.31-4.5-10.35-8.98C1488.87,99.07,1488.24,94.96,1488.67,90.48z M1104.08,224.35c-6.1,9.39-9.86,19.06-11.28,29.01
			c-1.68,11.78-0.44,23.04,3.74,33.78c4.17,10.75,10.65,19.75,19.46,27.01c8.8,7.26,18.89,11.7,30.27,13.32
			c11.17,1.59,21.94,0.12,32.33-4.41c10.38-4.53,19.07-11.37,26.07-20.53c7-9.15,11.34-19.62,13.02-31.4
			c1.79-12.59,0.92-24.31-2.61-35.18c-3.53-10.86-9.95-22.13-19.27-33.82l-36-43.97l-35.23,31.34l6.36,7.74l-3.48,2.61
			C1117.97,206.8,1110.18,214.96,1104.08,224.35z M1135.45,259.43c0.58-4.06,2.26-7.86,5.04-11.4c2.78-3.54,7.88-8.09,15.31-13.67
			l3.48-2.61l2.09,2.78c6.38,7.54,10.46,13.45,12.23,17.75c1.77,4.29,2.35,8.57,1.75,12.83c-0.69,4.87-3.11,8.73-7.24,11.56
			c-4.13,2.83-9.14,3.83-15.03,2.99c-5.89-0.84-10.47-3.2-13.75-7.09C1136.04,268.68,1134.75,264.3,1135.45,259.43z M539.08,222.11
			l-20.6-16.1c-10.02-7.83-20.22-12.68-30.61-14.55c-10.38-1.87-20.17-1-29.38,2.62c-9.2,3.61-17.08,9.62-23.65,18.02
			c-3.91,5.01-7.07,10.22-9.48,15.63c-5.49,12.36-9.77,28.74-12.83,49.14c-3.05,20.39-4.91,41-5.57,61.83l46.12-1.05
			c1.05-17.66,2.69-34.99,4.91-52c2.23-17,4.92-30.52,8.07-40.55c0.49-1.96,1.43-3.83,2.82-5.61c3.03-3.88,7.78-3.29,14.24,1.76
			l31.51,24.63c2.1,1.64,3.38,3.09,3.82,4.35c0.45,1.26,0.19,2.68-0.79,4.26l-6.77,9.16l32,25.01c6.44-8.24,10.41-13.48,11.88-15.7
			c5.05-6.47,7.86-13.97,8.42-22.51c0.56-8.54-1.22-17.09-5.34-25.65C553.75,236.24,547.48,228.68,539.08,222.11z M1014.16,161.4
			c1.87,2.32,3.41,4.08,4.61,5.28l53.12,53.93l32.48-31.54l-53.34-53.75c-4.3-4.45-7.2-9.61-8.68-15.47
			c-1.49-5.87-1.41-11.57,0.25-17.1c1.66-5.53,4.74-10.11,9.25-13.74c5.67-4.57,12.38-6.43,20.12-5.59
			c7.74,0.84,15.12,4.42,22.14,10.75l57.57,49.63l30.29-33.37l-36.61-31.63c-0.62-0.46-1.45-1.35-2.5-2.66
			c-3.4-4.22-5.01-8.91-4.85-14.07c0.16-5.16,2.13-9.26,5.91-12.31c3.2-2.57,6.9-3.64,11.1-3.18c4.2,0.45,8.17,2.41,11.91,5.87
			c4.15,3.37,9.69,12.93,16.62,28.68l40.52-19.32c-7.19-15.78-14.24-27.96-21.15-36.54c-2.46-3.05-4.36-5.12-5.7-6.19
			c-7.28-6.36-15.52-10.64-24.7-12.82c-9.19-2.19-18.48-2.19-27.88-0.02c-9.4,2.17-17.95,6.36-25.65,12.56
			c-3.35,2.69-6.24,5.5-8.68,8.42c-5,5.7-8.72,11.93-11.18,18.71c-12.26-4.51-24.81-5.73-37.64-3.67
			c-12.84,2.07-24.42,7.26-34.74,15.57c-10.76,8.66-18.53,19.17-23.32,31.54c-4.79,12.36-6.24,24.91-4.36,37.66
			C1000.93,139.76,1005.97,151.23,1014.16,161.4z M552.07,591.32c-3.21,5.29-7.46,9.4-12.76,12.33c-5.3,2.93-10.83,4.3-16.6,4.1
			c-5.77-0.2-10.98-2.02-15.64-5.46c-5.86-4.32-9.36-10.34-10.52-18.04c-1.16-7.7,0.43-15.74,4.78-24.14l33.38-68.29l-39.97-20.82
			l-21.3,43.45c-0.29,0.71-0.94,1.74-1.94,3.09c-3.22,4.36-7.34,7.11-12.37,8.27c-5.03,1.16-9.5,0.3-13.4-2.59
			c-3.3-2.44-5.27-5.75-5.9-9.92c-0.63-4.17,0.26-8.51,2.65-13.01c2.2-4.87,10.04-12.65,23.52-23.36l-28.98-34.28
			c-13.43,10.96-23.42,20.88-29.96,29.73c-2.33,3.15-3.84,5.52-4.54,7.09c-4.3,8.66-6.35,17.71-6.13,27.15
			c0.22,9.45,2.57,18.43,7.06,26.97c4.49,8.54,10.71,15.74,18.67,21.62c3.46,2.55,6.9,4.64,10.35,6.25
			c6.78,3.39,13.76,5.41,20.93,6.06c-1.25,13,0.76,25.45,6.02,37.34c5.26,11.89,13.22,21.77,23.88,29.64
			c11.11,8.21,23.25,13.05,36.42,14.54c13.17,1.49,25.68-0.29,37.54-5.35c11.85-5.05,21.66-12.83,29.42-23.35
			c1.77-2.4,3.08-4.34,3.93-5.8l38.66-65.08l-38.76-23.4L552.07,591.32z M1468.47,476.76c5.23-0.91,10.4-2.73,15.5-5.47
			c12-6.45,20.09-15.46,24.25-27.03c11.94,2.91,23.75,1.22,35.43-5.06c9.7-5.21,17.14-11.97,22.32-20.27
			c5.18-8.29,7.82-17.29,7.91-26.98c0.09-9.69-2.47-19.38-7.69-29.09c-3.62-6.74-8.02-12.75-13.19-18.02l-29.62-31.44l-28.6,28.41
			l29.62,31.44c2.93,3.09,5.1,5.95,6.52,8.58c2.03,3.78,2.34,7.01,0.91,9.68c-1.42,2.67-4.6,5.34-9.53,7.99
			c-4.77,2.56-8.52,3.58-11.25,3.03c-2.73-0.54-5.11-2.71-7.15-6.49l-16.44-30.58l-33.05,17.77l16.44,30.58
			c1.95,3.62,2.45,6.74,1.53,9.35c-0.93,2.62-4.18,5.43-9.77,8.43c-6.58,3.54-11.94,4.99-16.09,4.36
			c-4.15-0.63-8.73-3.62-13.73-8.99l-19.31-25.86l-31.72,24.37l46.57,62.38c1.92,2.78,3.19,4.75,3.81,5.9
			c2.47,4.6,3.27,8.84,2.38,12.71c-0.89,3.87-3.46,8.06-7.71,12.57c-4.25,4.51-11.22,10.96-20.91,19.35
			c-5.38,4.59-10.2,8.03-14.48,10.33c-10.52,5.66-20.3,6.88-29.33,3.69c-9.03-3.2-16.68-10.63-22.96-22.31
			c-6.01-11.18-10.55-26.12-13.6-44.82l-40.7,4.71c3.4,21.7,9.65,41.02,18.75,57.95c8.22,15.29,18.16,27.27,29.82,35.95
			c11.66,8.67,24.32,13.41,38,14.22c13.67,0.8,27.5-2.55,41.48-10.06c8.22-4.42,15.54-9.52,21.97-15.31
			c19.78-17.21,32.58-33.31,38.41-48.3C1479.08,509.41,1477.49,493.53,1468.47,476.76z M721.86,220.54
			c-3.81,4.89-10.15,11.96-19.01,21.22c-4.93,5.07-9.41,8.95-13.45,11.63c-9.95,6.62-19.57,8.75-28.86,6.41
			c-9.29-2.34-17.6-9.03-24.95-20.06c-7.03-10.57-12.94-25.02-17.74-43.35l-40.08,8.5c5.41,21.28,13.44,39.93,24.09,55.94
			c9.61,14.45,20.63,25.46,33.05,33c12.42,7.55,25.47,11.08,39.17,10.6c13.69-0.48,27.15-5.11,40.36-13.9
			c7.77-5.17,14.59-10.93,20.44-17.3c18.09-18.98,29.33-36.21,33.72-51.68c4.39-15.48,1.32-31.14-9.23-46.99
			c5.13-1.39,10.1-3.69,14.92-6.9c11.34-7.54,18.55-17.27,21.62-29.18c12.16,1.78,23.76-1.01,34.8-8.35
			c9.17-6.1,15.95-13.52,20.33-22.27c4.38-8.74,6.17-17.94,5.35-27.6c-0.82-9.65-4.27-19.07-10.38-28.24
			c-4.24-6.37-9.18-11.94-14.81-16.71L798.79,6.79l-25.82,30.96l32.43,28.54c3.21,2.8,5.64,5.44,7.29,7.93
			c2.38,3.58,2.98,6.76,1.81,9.55c-1.17,2.79-4.08,5.74-8.75,8.84c-4.51,3-8.15,4.36-10.92,4.07c-2.77-0.29-5.34-2.22-7.72-5.79
			L767.9,61.97l-31.24,20.78l19.23,28.91c2.27,3.42,3.07,6.48,2.4,9.17c-0.68,2.69-3.66,5.8-8.94,9.31
			c-6.22,4.14-11.42,6.08-15.62,5.85c-4.19-0.24-9.03-2.79-14.51-7.67l-21.64-23.94l-29.31,27.23l52.2,57.76
			c2.17,2.59,3.62,4.43,4.34,5.52c2.89,4.35,4.08,8.49,3.56,12.43C727.84,211.24,725.68,215.65,721.86,220.54z M1225.43,477.78
			c-8.72-6.41-18.73-10.06-30.01-10.94c-11.29-0.88-22.9,1.12-34.83,6.01l-10.32,4.58l15.09,38.55l8.98-4.17
			c4.27-1.72,8.62-2.35,13.03-1.89c4.41,0.46,8.34,1.96,11.8,4.51c3.31,2.43,6.01,5.69,8.1,9.78l20.93,40.07l-50.82-20.69
			c-22-8.53-42.64-10.38-61.94-5.57c-19.3,4.81-34.69,15.04-46.19,30.68c-4.98,6.77-8.74,13.61-11.29,20.55
			c-6.85,18.13-7.66,36.01-2.43,53.65l40.71-15.42c-3.11-9.01-2.97-17.71,0.42-26.1c1.17-2.85,2.8-5.7,4.9-8.56
			c5.53-7.52,13.24-12.1,23.14-13.74c9.9-1.64,21.66,0.24,35.31,5.63l85.1,32.68l35.2-38.41l-34.09-75.11
			C1241.23,492.99,1234.3,484.3,1225.43,477.78z M53.36,236.41c6.82,3.86,13.86,6.78,21.11,8.74l72.79,18.07l12.38-42.87
			l-71.3-17.87c-4.45-1.23-8.62-2.96-12.52-5.16c-8.77-4.97-15.23-11.74-19.38-20.32c-4.15-8.58-5.04-17.23-2.66-25.97
			c0.82-2.97,2.11-6,3.86-9.08c4.6-8.12,11.72-13.58,21.35-16.38c9.63-2.8,21.54-2.33,35.72,1.42l88.37,22.39l30.41-42.31
			l-42.73-70.55c-6.25-10.19-14.16-18-23.74-23.43c-9.42-5.34-19.79-7.78-31.09-7.32c-11.31,0.46-22.6,3.82-33.88,10.09l-9.7,5.77
			l19.55,36.5l8.42-5.21c4.04-2.22,8.28-3.35,12.72-3.42c4.43-0.06,8.52,0.96,12.25,3.08c3.57,2.02,6.64,4.94,9.2,8.75l25.52,37.31
			L127.1,84.13c-22.85-5.87-43.57-5.27-62.16,1.79c-18.59,7.06-32.67,19.04-42.24,35.93c-4.14,7.31-7.07,14.55-8.78,21.74
			c-4.66,18.81-3.35,36.67,3.93,53.56C25.12,214.03,36.96,227.12,53.36,236.41z M1096.59,494.09c6.19-4.81,12.59-11.33,19.21-19.54
			c11.84-14.88,20.09-28.14,24.75-39.8c4.65-11.65,5.7-23.16,3.13-34.53c-2.57-11.36-9.17-23.43-19.8-36.21l-116.51-138.53
			l-30.24,26.34l116.51,138.53c5.45,6.4,8.55,11.85,9.32,16.34c0.77,4.49-0.37,9.27-3.4,14.34c-3.03,5.07-9.01,13.44-17.91,25.09
			c-3.98,5.22-8.18,9.55-12.6,12.99c-9.29,7.22-18.67,9.9-28.15,8.04c-9.48-1.85-18.34-8.09-26.59-18.7
			c-7.9-10.17-14.8-24.07-20.71-41.71l-39.17,11.65c6.85,20.68,16.18,38.61,27.97,53.79c10.65,13.71,22.45,23.87,35.39,30.48
			s26.21,9.24,39.82,7.89C1071.21,509.2,1084.2,503.71,1096.59,494.09z M231.55,530.64l27.86-21.65l6.41-4.98l28.08-21.82
			l-23.59-29.9l-17.47,13.57l-16.49-21.23l-26.75,20.79l16.49,21.23l-17.69,13.74L231.55,530.64z M377.86,504.89
			c-4.7-6.04-10.03-11.23-16-15.58l-34.44-26.07l-23.47,32.77l34.44,26.07c3.41,2.56,6.02,5.01,7.85,7.37
			c2.64,3.39,3.47,6.52,2.51,9.39c-0.96,2.87-3.65,6.03-8.07,9.46c-4.28,3.32-7.8,4.94-10.59,4.86c-2.78-0.08-5.49-1.82-8.13-5.21
			l-21.3-27.42l-29.63,23.02l21.3,27.42c2.52,3.24,3.54,6.23,3.07,8.96c-0.48,2.74-3.22,6.05-8.23,9.94
			c-5.9,4.58-10.94,6.91-15.14,6.98c-4.2,0.07-9.21-2.12-15.04-6.58l-23.34-22.28l-27.22,29.31l56.31,53.76
			c2.36,2.42,3.94,4.15,4.74,5.18l32.99-22.8c5.01-1.77,9.8-4.42,14.37-7.97c10.76-8.36,17.23-18.59,19.41-30.69
			c12.26,0.88,23.62-2.75,34.09-10.89c8.7-6.76,14.91-14.65,18.64-23.7c3.73-9.04,4.83-18.35,3.3-27.92
			C388.75,522.72,384.61,513.59,377.86,504.89z M377.63,343.26c-6.27-6.14-13.15-10.45-20.64-12.94
			c-7.49-2.49-15.98-3.42-25.47-2.78l62.2-68.81l-30.19-26.39l-93.29,103.41l-13.04,2.13l-18.42-18.01l-31.52,32.23l82.68,80.85
			c7.61,7.44,16.6,12.39,27,14.85c10.39,2.46,20.81,2.28,31.28-0.55c10.46-2.82,19.41-8.04,26.85-15.65
			c8.35-8.54,14.12-18.18,17.3-28.9c3.18-10.73,3.52-21.36,1.03-31.89C390.89,360.28,385.64,351.09,377.63,343.26z M347.79,401.81
			c-3.52,3.6-7.66,5.43-12.41,5.48c-4.75,0.05-9.13-1.88-13.13-5.79l-31.63-30.93l23.76-0.27c10.03-0.38,17.26-0.16,21.69,0.65
			c4.43,0.81,8.05,2.58,10.85,5.32c4,3.92,6,8.28,5.99,13.1C352.89,394.2,351.19,398.34,347.79,401.81z M688.46,505.99l-11.92,18.3
			l-22.29-14.52l-18.49,28.39l22.29,14.52l-12.38,19l31.99,21.17l19.26-29.56l4.58-7.04l19.26-29.56L688.46,505.99z M820.36,595.91
			c-4.38-2.85-8.73-5.24-13.05-7.16l-20.92-9.95l-53.23-24.98l-16.62,36.29l73.45,34.48c2.71,1.32,4.53,2.28,5.47,2.89
			c5.47,3.57,8.37,8.18,8.69,13.85l42.49-10.59C843.66,617,834.9,605.39,820.36,595.91z M469.52,144.94
			c8.11,11.04,19.52,19.54,34.23,25.5c8.47,3.43,16.99,5.78,25.55,7.03c24.35,4.03,44.72,3.82,61.12-0.6
			c16.4-4.43,27.26-13.22,32.59-26.37c0.98-2.42,1.81-5.21,2.48-8.36c1.35-7.31,1.24-13.49-0.33-18.56
			c-1.57-5.07-4.4-9.64-8.49-13.71c-4.09-4.07-10.43-9.67-19.03-16.78l-6.32-5.28c-5.39-4.6-8.85-7.97-10.4-10.11
			c-1.55-2.14-1.9-4.25-1.06-6.32c0.49-1.21,1.31-2.49,2.46-3.84c3.52-4.21,8.48-8.14,14.9-11.79c6.41-3.64,13.34-3.96,20.78-0.95
			c2.6,1.05,4.87,2.38,6.85,3.98l14.97,11.51l25.9-36.33l-14.97-11.51c-4.73-3.73-9.78-6.68-15.14-8.86
			c-14.53-5.89-29.41-6.08-44.64-0.57c-15.23,5.51-28.45,15.16-39.67,28.94c-5.58,6.8-9.77,13.67-12.57,20.58
			c-4.14,10.21-4.44,19.65-0.91,28.33c3.53,8.68,10.44,17.73,20.73,27.13c4.76,4.14,10.57,8.71,17.41,13.7
			c1.07,0.83,2.67,2.09,4.82,3.77c2.14,1.67,3.14,2.68,3,3.03c-0.56,1.38-16.07-0.37-46.51-5.26c-6.96-1.21-12.69-2.73-17.19-4.55
			c-11.07-4.49-18.26-11.23-21.56-20.22c-3.3-9-2.47-19.63,2.51-31.91c4.91-12.11,13.51-25.14,25.81-39.09L497.21,9.18
			c-14.53,16.47-25.37,33.53-32.52,51.17c-6.59,16.26-9.46,31.66-8.61,46.21C456.93,121.11,461.41,133.9,469.52,144.94z
			 M989.78,204.66l-69.06-79.29l42.3-8.17c6.39-1.21,12.03-3.71,16.88-7.5c5.59-4.37,9.61-10.05,12.07-17.07
			c2.46-7.01,3.03-14.39,1.72-22.13c-2.6-14.54-8.33-27.48-17.18-38.81c-7.47-9.56-16.21-16.65-26.21-21.27
			c-10.01-4.62-20.11-6.02-30.3-4.22c-8.3,1.51-15.61,4.73-21.93,9.67c-7.06,5.52-12.15,12.57-15.27,21.16
			c-3.12,8.6-3.8,17.66-2.04,27.18l4.79,24.33l-8.37,1.57l-10.42,31.24l92.33,109.08L989.78,204.66z M921.44,56.94
			c0.79-3.69,2.43-6.52,4.93-8.47c1.77-1.38,3.88-2.32,6.33-2.81c6.22-0.83,11.4,1.4,15.53,6.7c3.56,4.56,6.49,12.11,8.79,22.62
			l-33.26,6.09l-2.06-10.83C920.74,65.07,920.66,60.63,921.44,56.94z M217.93,295.44c-4.06-4.46-8.56-8.19-13.49-11.21
			c-13.37-8.19-28.02-10.81-43.94-7.86c-15.92,2.95-30.55,10.3-43.87,22.06c-6.62,5.8-11.87,11.89-15.77,18.25
			c-5.75,9.4-7.6,18.66-5.53,27.8c2.06,9.14,7.4,19.2,16.01,30.16c4.02,4.87,9,10.32,14.93,16.37c0.92,1,2.3,2.5,4.14,4.5
			c1.84,2,2.66,3.16,2.47,3.48c-0.78,1.27-15.79-2.99-45.03-12.79c-6.67-2.33-12.08-4.77-16.21-7.3
			c-10.19-6.24-16.18-14.06-17.97-23.48c-1.79-9.41,0.78-19.77,7.7-31.07c6.82-11.14,17.44-22.59,31.86-34.34l-24.58-32.78
			c-17.03,13.87-30.51,28.92-40.45,45.16c-9.16,14.97-14.51,29.69-16.05,44.18c-1.54,14.49,0.79,27.84,6.99,40.06
			c6.2,12.22,16.06,22.47,29.59,30.76c7.8,4.77,15.82,8.48,24.06,11.12c23.36,7.95,43.5,11.09,60.4,9.4
			c16.9-1.69,29.06-8.59,36.47-20.68c1.37-2.23,2.64-4.84,3.82-7.84c2.53-6.99,3.43-13.11,2.71-18.37
			c-0.72-5.25-2.77-10.23-6.13-14.92c-3.37-4.69-8.71-11.24-16.03-19.66l-5.37-6.24c-4.56-5.42-7.43-9.31-8.61-11.67
			c-1.18-2.36-1.18-4.5-0.01-6.41c0.68-1.11,1.7-2.24,3.06-3.38c4.16-3.58,9.7-6.64,16.63-9.19c6.92-2.55,13.8-1.73,20.65,2.47
			c2.39,1.46,4.42,3.15,6.1,5.05l12.89,13.8l31.5-31.6L217.93,295.44z M207.5,196.51l15.96-11.02l-12.2-20.13l-18.55,12.15
			c-2.93,1.67-5.66,3.86-8.21,6.57c-6.45,6.87-9.44,14.84-8.98,23.95c0.46,9.1,4.3,17.04,11.53,23.83c2.89,2.71,6.15,4.85,9.8,6.4
			c3.64,1.55,7.13,2.36,10.46,2.43c0.1,3.15,1.08,6.54,2.95,10.16c1.86,3.62,4.24,6.79,7.13,9.5c7.59,7.12,16.06,10.67,25.44,10.64
			c9.37-0.03,17.29-3.48,23.73-10.34c2.71-2.89,4.72-5.76,6.04-8.6l13.12-25.92l-21.38-10.9l-13.71,23.83
			c-2.65,4.99-6.86,4.77-12.64-0.66c-2.17-2.04-3.45-3.92-3.86-5.66c-0.41-1.74-0.27-2.97,0.41-3.69l16.49-19.18l-15.98-15.01
			l-17.84,17.91c-0.51,0.54-1.69,0.71-3.53,0.51c-1.85-0.2-3.85-1.33-6.02-3.36C202.06,204.65,202.01,200.19,207.5,196.51z
			 M1316.91,456.96c9.39-5.4,16.72-12.73,21.97-21.98c5.89-10.39,9.01-21.18,9.35-32.36c0.33-11.18-2.05-21.55-7.15-31.1
			c-5.1-9.54-12.52-17.08-22.26-22.61c-7.63-4.33-15.39-6.74-23.26-7.24c-7.88-0.5-16.32,0.77-25.34,3.81l42.57-82.41l-35.93-17.81
			l-63.8,123.8l-12.07,5.39l-22.41-12.71l-22.25,39.21l100.58,57.06c9.25,5.25,19.22,7.74,29.89,7.46
			C1297.48,465.19,1307.51,462.36,1316.91,456.96z M1280.14,419.35l-38.48-21.83l22.9-6.32c9.6-2.93,16.64-4.56,21.14-4.91
			c4.49-0.35,8.44,0.44,11.85,2.38c4.87,2.76,7.91,6.48,9.13,11.14c1.22,4.66,0.63,9.1-1.77,13.32c-2.49,4.38-6.02,7.21-10.6,8.47
			S1285.01,422.11,1280.14,419.35z M739.25,330.02l-107.18-10.84l-23.28,26.65l17.2,105.27c0.35,2.25,0.08,4.3-0.82,6.14
			c-0.82,1.68-2.19,2.78-4.1,3.3c-1.5,0.52-3.76,0.04-6.78-1.44l-54.86-26.76c-25.67-12.52-42.53-21.06-50.59-25.61
			c-8.06-4.55-13.36-8.49-15.9-11.8c-1.95-2.4-3.18-4.46-3.69-6.16c-0.52-1.7-0.29-3.57,0.7-5.58c0.9-1.84,2.22-3.69,3.95-5.55
			l28.72-33.97l-29.7-27.26l-27.61,32.33c-5.12,6.23-8.86,11.78-11.23,16.64c-4.99,10.24-6.96,20.55-5.89,30.93
			c1.06,10.38,5.18,19.92,12.37,28.62c4.13,4.72,8.83,9.03,14.09,12.95c5.26,3.92,12.54,8.35,21.86,13.31
			c9.31,4.96,23.29,11.98,41.91,21.06l1.26,0.61l54.61,26.63c8.56,4.17,16.78,6.37,24.67,6.58c7.89,0.22,14.95-1.38,21.18-4.78
			c8.47-4.17,15-10.96,19.58-20.36c5.73-11.74,7.51-25.41,5.35-41l-10.37-73.91l78.85,8.24L739.25,330.02z M853.22,206.25
			c7.85,13.49,13.42,24.72,16.73,33.71c0.73,1.68,1.1,3.56,1.08,5.61c-0.03,4.48-3.78,6.7-11.24,6.65l-36.4-0.23
			c-2.43-0.02-4.15-0.35-5.17-1.01c-1.02-0.66-1.62-1.83-1.8-3.51l-0.21-10.36l-36.96-0.23c-0.06,9.52-0.01,15.5,0.17,17.92
			c-0.05,7.47,2.1,14.43,6.45,20.9c4.34,6.47,10.38,11.64,18.1,15.51c7.72,3.88,16.44,5.84,26.14,5.9l23.8,0.15
			c11.57,0.07,21.62-2.1,30.14-6.53c8.52-4.43,15.09-10.5,19.71-18.22c4.62-7.71,6.96-16.43,7.02-26.14
			c0.04-5.78-0.59-11.3-1.86-16.53c-2.91-11.96-8.94-26.14-18.07-42.53c-9.14-16.39-19.26-32.27-30.36-47.65l-32.65,26.4
			C836.92,179.37,845.37,192.76,853.22,206.25z M872.61,425.65c2.13-0.07,4.26-0.44,6.4-1.11l86.1-26.76
			c10.16-3.16,18.84-8.74,26.03-16.74c7.19-8,12.03-17.27,14.52-27.82c2.49-10.54,2.15-20.9-1-31.06
			c-3.54-11.41-9.33-21.04-17.34-28.92c-8.02-7.87-17.25-13.21-27.7-16.02c-10.45-2.81-21.03-2.55-31.72,0.77
			c-9.09,2.83-16.59,7.31-22.5,13.44c-5.91,6.14-10.94,13.86-15.09,23.16c-4.15,9.31-9.2,22.61-15.16,39.9l-9.23,26.91l-2.14,0.66
			c-3.57,1.11-6.3,1.13-8.19,0.05c-1.9-1.07-3.84-3.54-5.83-7.43l-3.75-7.34l-13.42-28.08l-35.79,17.87l33.82,70.12
			c1.35,3.1,2.23,5.27,2.61,6.52c1.55,4.99,1.52,9.3-0.09,12.93c-1.61,3.63-4.93,7.25-9.96,10.87c-5.03,3.62-13.11,8.62-24.22,15
			c-6.15,3.47-11.55,5.93-16.18,7.37c-11.41,3.55-21.24,2.89-29.5-1.98c-8.26-4.87-14.35-13.62-18.28-26.28
			c-3.77-12.12-5.37-27.65-4.8-46.59l-40.85-3.14c-0.8,21.95,1.65,42.1,7.36,60.46c5.15,16.58,12.62,30.24,22.41,40.98
			s21.32,17.81,34.59,21.21c13.27,3.4,27.49,2.75,42.64-1.96c8.91-2.77,17.07-6.38,24.49-10.84c22.29-13.19,37.78-26.4,46.46-39.66
			C875.95,458.91,877.73,443.41,872.61,425.65z M924.84,339.92c2.66-5.91,5.3-10.3,7.93-13.17c2.63-2.87,5.81-4.89,9.56-6.05
			c5.35-1.66,10.18-1.35,14.51,0.92c4.32,2.28,7.2,5.73,8.64,10.36c1.5,4.81,0.96,9.38-1.61,13.69c-2.57,4.32-6.62,7.33-12.14,9.05
			l-36.63,11.38C918.93,354.57,922.18,345.84,924.84,339.92z M1012.33,542.77c-2.65-3.14-5.69-6.31-9.12-9.52l-32.88-31.61
			c-9.42-9.14-19.52-15.83-30.28-20.07c-10.77-4.23-21.27-5.69-31.52-4.37c-10.25,1.31-19.51,5.46-27.79,12.44
			c-8.42,7.1-14.1,15.79-17.02,26.07c-2.93,10.29-3.1,20.87-0.52,31.75c2.58,10.89,7.61,20.75,15.07,29.6
			c7.46,8.85,15.99,15.21,25.6,19.07c9.61,3.87,19.31,5.03,29.11,3.47c9.8-1.55,18.84-5.81,27.12-12.79
			c7.13-6.01,13.78-12.47,19.93-19.37c3.1,3.97,4.27,8.18,3.5,12.62c-0.78,4.44-3.74,10.41-8.88,17.92
			c-5.15,7.51-14.24,19.45-27.29,35.83l69.61-21.69c7.21-13.16,10.56-25.26,10.05-36.3C1026.49,564.77,1021.6,553.76,1012.33,542.77
			z M931.04,552.34c-8.13,6.86-15.33,6.58-21.59-0.84c-3.85-4.57-5.83-9.37-5.93-14.41c-0.1-5.04,1.92-9.31,6.06-12.8
			c4.42-3.73,9.6-5.04,15.54-3.94c5.93,1.1,12.08,4.71,18.45,10.81l4.58,4.56C942.31,542.1,936.61,547.64,931.04,552.34z
			 M541.31,364.59c-0.57,6.71,1.31,12.63,5.64,17.77c4.45,5.28,10.06,8.24,16.83,8.88c6.77,0.64,12.79-1.26,18.07-5.71
			c5.14-4.33,7.96-9.88,8.47-16.67c0.51-6.78-1.46-12.81-5.91-18.09c-4.33-5.14-9.85-7.99-16.56-8.56
			c-6.71-0.57-12.63,1.31-17.77,5.64C544.8,352.31,541.88,357.89,541.31,364.59z M688.2,97.94l41.3-28.88
			c8.25-6.05,13.87-12.93,16.86-20.62c2.99-7.69,3.02-15.28,0.08-22.75c-0.48-1.21-1.44-3.14-2.88-5.79
			c-4.02-6.64-9.82-11.08-17.42-13.31c-7.6-2.23-15.22-1.84-22.86,1.17c-1.91,0.75-4.47,2.16-7.67,4.22
			c-6.09,4.4-10.21,9.73-12.36,15.99c-2.15,6.26-2,12.52,0.46,18.77c0.89,2.26,2.07,4.5,3.55,6.73l8.61,11.96l-20.1,13.92
			L688.2,97.94z M707.88,29.42c1.6-1.03,2.83-1.72,3.7-2.06c3.3-1.3,6.28-1.37,8.94-0.21c2.66,1.16,4.57,3.22,5.74,6.17
			c1.02,2.61,0.73,5.43-0.88,8.47c-1.61,3.04-4.47,5.97-8.58,8.79l-3.76,2.68l-8.15-11.54c-0.9-1.25-1.41-2.05-1.55-2.4
			C701.99,35.85,703.5,32.55,707.88,29.42z M1230.4,98.21l-40.22-2.7l-1.33,42.49c-0.1,8.06,0.45,14.73,1.64,20.01
			c2.5,11.11,7.42,20.38,14.74,27.82c7.32,7.44,16.5,12.31,27.54,14.6c6.18,1.1,12.54,1.53,19.09,1.29
			c6.55-0.23,15.01-1.32,25.38-3.28c10.37-1.95,25.66-5.21,45.88-9.77l1.37-0.31l49.17-11.08c26.77-6.03,44.82-14.45,54.15-25.26
			c9.33-10.81,12.05-24.86,8.15-42.16c-0.66-2.91-1.24-5.07-1.75-6.49l-15-50.01c-3.56-12.4-9.15-22.77-16.77-31.09
			c-7.62-8.33-16.4-13.96-26.34-16.88c-9.94-2.93-20.29-2.79-31.05,0.4c-15.92,4.93-26.82,14.32-32.69,28.18
			c-5.87,13.86-6.79,29.71-2.77,47.55c3.63,15.26,11.07,26.21,22.33,32.85c11.26,6.65,24.53,8.25,39.83,4.8
			c8.37-1.89,16.71-3.95,25.01-6.21c1.22,3.74,1.25,6.61,0.07,8.59c-1.18,1.99-4.07,3.79-8.68,5.4c-4.61,1.61-12.56,3.69-23.85,6.24
			l-49.71,11.2c-27.86,6.28-46.36,10.16-55.5,11.65c-9.14,1.49-15.73,1.73-19.78,0.73c-3.02-0.66-5.26-1.49-6.73-2.5
			c-1.47-1-2.45-2.6-2.95-4.79c-0.45-2-0.58-4.27-0.38-6.8L1230.4,98.21z M1362.64,78.74c-10.38,2.34-16.62-1.13-18.71-10.42
			c-1.31-5.83-0.89-10.94,1.27-15.36c2.16-4.41,5.88-7.21,11.17-8.4c5.64-1.27,10.68-0.16,15.1,3.34c4.42,3.5,7.92,9.26,10.5,17.29
			l2.33,7.8C1378.96,74.77,1371.74,76.69,1362.64,78.74z M1288.51,77.93l-8.68-38.51l-38.79,8.74l8.68,38.51L1288.51,77.93z
			 M1449.93,297.06l28.93-13.26c7.52-3.65,13.7-8.32,18.54-14.01c6.65-7.82,10.62-16.88,11.91-27.18
			c1.29-10.3-0.33-20.56-4.86-30.79c-3.25-7.42-8.14-13.91-14.68-19.47c-8.24-7.01-17.78-11.51-28.6-13.49
			c-10.82-1.97-21.16-0.91-31.03,3.2l-103.72,41.53l10.56,22.59c-2.47,12.12-0.98,24.05,4.47,35.79c3.57,8.19,8.77,15.18,15.6,20.99
			c9.53,8.11,20.22,12.67,32.09,13.7l-1.09,1.28l-9.8,11.51l0,0l-1.81,2.13l0.01,0.01l-29.02,34.53l34.33,29.21l30.82-36.67l0,0
			l9.8-11.51C1435.57,331.66,1444.76,314.96,1449.93,297.06z M1448.56,220.9c3.21-1.18,6.26-1.59,9.14-1.23
			c2.88,0.37,5.31,1.39,7.3,3.09c1.42,1.21,2.54,2.78,3.36,4.7c1.27,2.55,1.64,5.13,1.12,7.76c-0.52,2.63-1.62,4.93-3.32,6.92
			c-1.7,1.99-3.69,3.48-6,4.46l-9.04,3.71c-1.29-4.53-2.81-8.64-4.57-12.34c-2.08-4.47-4.81-8.75-8.19-12.85L1448.56,220.9z
			 M1399.06,272.16c-2.81,1.29-5.55,1.77-8.23,1.46c-2.68-0.31-4.93-1.26-6.78-2.83c-1.99-1.69-3.49-3.82-4.49-6.39
			c-0.98-2.3-1.27-4.7-0.88-7.18c0.4-2.48,1.5-4.79,3.32-6.92c1.93-2.27,4.26-3.85,6.97-4.73c2.69-1.14,5.51-1.43,8.47-0.88
			c2.96,0.56,5.5,1.74,7.64,3.56c1.57,1.33,2.9,3.08,4,5.24c2.25,4.85,3.59,9.18,4.03,12.98L1399.06,272.16z M189.33,520.36
			l-28.14-72.88l-37.11,14.94l28.08,72.61c1.1,3.2,1.8,5.43,2.08,6.71c1.15,5.1,0.77,9.39-1.12,12.88c-1.9,3.48-5.5,6.83-10.8,10.03
			c-5.31,3.2-13.76,7.54-25.34,13.01c-6.41,2.97-11.99,4.99-16.72,6.05c-11.66,2.62-21.4,1.17-29.24-4.33
			c-7.84-5.51-13.21-14.73-16.12-27.66c-2.78-12.38-3.13-27.99-1.05-46.83l-40.47-6.4c-2.56,21.81-1.73,42.1,2.48,60.86
			c3.81,16.94,10.16,31.15,19.05,42.64c8.9,11.49,19.82,19.46,32.78,23.91c12.96,4.45,27.18,4.94,42.66,1.46
			c9.1-2.05,17.53-4.99,25.28-8.84c23.86-11.29,40.57-23.37,50.12-36.23c9.54-12.86,12.21-28.67,8-47.43
			C192.55,529.59,191.08,524.75,189.33,520.36z M106.16,491.86l-8.72-38.79l-38.79,8.72l8.72,38.79L106.16,491.86z M291.63,41.79
			l-16.07-31.41l-64.81,33.15l16.07,31.41L291.63,41.79z M370.9,156.94c-5.47,4.47-10.37,7.82-14.68,10.03
			c-10.64,5.44-20.44,6.47-29.4,3.09c-8.97-3.39-16.46-10.97-22.5-22.77c-5.78-11.3-10.01-26.33-12.68-45.09l-40.79,3.88
			c2.95,21.76,8.81,41.2,17.56,58.32c7.91,15.46,17.6,27.64,29.07,36.55c11.48,8.91,24.04,13.91,37.7,15
			c13.66,1.08,27.55-1.98,41.68-9.21c8.31-4.25,15.74-9.2,22.28-14.86c16.65-13.76,29.04-25.81,37.17-36.15
			c8.13-10.34,12.81-20.55,14.06-30.62c1.24-10.07-1.19-21.09-7.32-33.06c-1.95-3.82-4.2-7.6-6.74-11.33l-24.89-38.22
			c-11-16.59-24.22-27.87-39.63-33.82c-15.42-5.95-30.35-5.23-44.81,2.16c-9.81,5.02-17.3,12.2-22.47,21.56
			c-5.17,9.36-7.73,19.63-7.67,30.81c0.06,11.19,2.68,21.85,7.87,31.99c5.27,10.31,12.17,18.47,20.7,24.48
			c8.53,6.02,17.74,9.38,27.64,10.08c9.9,0.71,19.67-1.41,29.31-6.34c6.48-3.32,14.24-8.02,23.29-14.11l1.91,3.11
			c2.37,4.24,0.61,9.7-5.3,16.39C396.36,135.48,385.9,144.87,370.9,156.94z M361.84,83.27c-9.47,4.85-16.42,2.95-20.84-5.7
			c-2.72-5.32-3.56-10.44-2.52-15.38c1.04-4.93,4.05-8.68,9.04-11.23c5.15-2.63,10.45-2.72,15.9-0.27
			c5.45,2.46,10.58,7.38,15.41,14.76l3.3,5.23C374.59,76.01,367.82,80.21,361.84,83.27z M30.13,83.29
			c6.69,1.19,12.85-0.22,18.48-4.22l7.75-5.52c2.74-1.95,4.95-4.15,6.63-6.62c1.69-2.46,3.86-6.64,6.53-12.56
			c2.67-5.91,6.81-16.02,12.42-30.34l-20.2-7.61c-4.75,13.93-7.95,22.62-9.6,26.09c-4.18-4.58-9.33-7.22-15.43-7.91
			c-6.11-0.69-11.67,0.75-16.69,4.32c-5.47,3.9-8.81,9.2-10,15.89c-1.19,6.69,0.16,12.78,4.06,18.25
			C18.09,78.7,23.44,82.1,30.13,83.29z M1516.96,552.27c-0.68,2.93-1.21,4.92-1.59,5.98c-2.25,6.13-6.1,9.99-11.55,11.57
			c-5.45,1.58-14.57,1.91-27.36,1l-19.97-1.66l-4.95,44.41l19.97,1.66c22.04,1.71,39.42-0.41,52.14-6.38
			c12.73-5.97,22.08-17.11,28.05-33.4c1.8-4.9,3.15-9.68,4.06-14.32l5.01-22.62l12.42-57.48l-39.09-8.07L1516.96,552.27z
			 M1550.19,264.09l17.67-34.28c1.63-3.69,2.69-6.38,3.19-8.06c3.07-10.3,2.29-19.68-2.38-28.12c-4.66-8.44-12.38-14.27-23.17-17.49
			l-8.99-2.68l-6.04,26.78l1.44,0.43c4.56,1.36,6.08,4.56,4.58,9.59c-0.57,1.92-1.16,3.44-1.75,4.57l-17.67,34.28
			c-1.62,3.69-2.69,6.38-3.19,8.06c-3.08,10.31-2.28,19.68,2.38,28.12c4.66,8.44,12.38,14.27,23.17,17.49l8.99,2.68l6.04-26.78
			l-1.44-0.43c-4.55-1.36-6.08-4.56-4.58-9.59C1549.01,266.74,1549.6,265.22,1550.19,264.09z M798.83,535.27l12.37,43.48
			l43.79-12.46l-12.37-43.48L798.83,535.27z"/>
	</g>
</g>
</svg>
