<svg width="91" height="91" viewBox="0 0 91 91" fill="none" xmlns="http://www.w3.org/2000/svg">
<path d="M11.2227 26.8672H5.94922V47.9609H11.2227V53.2344H16.4961V47.9609H21.7695V26.8672H16.4961V21.5938H11.2227V26.8672ZM16.4961 42.6875H11.2227V32.1406H16.4961V42.6875Z" fill="#0E121D"/>
<path d="M37.5898 42.6875V37.4141H42.8633V16.3203H37.5898V11.0469H32.3164V16.3203H27.043V37.4141H32.3164V42.6875H37.5898ZM32.3164 21.5938H37.5898V32.1406H32.3164V21.5938Z" fill="#0E121D"/>
<path d="M58.6836 37.4141V32.1406H63.957V11.0469H58.6836V5.77344H53.4102V11.0469H48.1367V32.1406H53.4102V37.4141H58.6836ZM53.4102 16.3203H58.6836V26.8672H53.4102V16.3203Z" fill="#0E121D"/>
<path d="M79.7773 32.1406V26.8672H85.0508V5.77344H79.7773V0.5H74.5039V5.77344H69.2305V26.8672H74.5039V32.1406H79.7773ZM74.5039 11.0469H79.7773V21.5938H74.5039V11.0469Z" fill="#0E121D"/>
<path d="M3.3125 63.7814H25.0287L46.1224 53.2346H67.2162L81.5564 46.0645L80.4949 50.6073L85.63 51.8074L88.4687 39.6604L77.048 34.6431L74.9268 39.4712L79.1982 41.3477L65.9713 47.9611H44.8776L23.7838 58.508H3.3125V63.7814Z" fill="#43568E"/>
<path d="M85.0508 58.5078H69.2305V85.2266H63.957V58.5078H48.1367V85.2266H42.8633V62.1516L27.043 70.0617V85.2266H21.7695V69.0547H5.94922V85.2266H0.5V90.5H90.5V85.2266H85.0508V58.5078ZM74.5039 63.7812H79.7773V85.2266H74.5039V63.7812ZM53.4102 63.7812H58.6836V85.2266H53.4102V63.7812ZM32.3164 73.3211L37.5898 70.6844V85.2266H32.3164V73.3211ZM11.2227 74.3281H16.4961V85.2266H11.2227V74.3281Z" fill="#0E121D"/>
</svg>
